{
  "accessors": [
    {
      "bufferView": 2,
      "componentType": 5126,
      "count": 4739,
      "max": [
        7.2098388671875,
        11.042699813842773,
        5.298381328582764
      ],
      "min": [
        -7.462719917297363,
        -11.508596420288086,
        -6.2250895500183105
      ],
      "type": "VEC3"
    },
    {
      "bufferView": 2,
      "byteOffset": 56868,
      "componentType": 5126,
      "count": 4739,
      "max": [
        0.999840259552002,
        1.0,
        0.9999976754188538
      ],
      "min": [
        -0.9999592304229736,
        -1.0,
        -0.9999971389770508
      ],
      "type": "VEC3"
    },
    {
      "bufferView": 3,
      "componentType": 5126,
      "count": 4739,
      "max": [
        0.9999914169311523,
        0.9999960660934448,
        0.9998953342437744,
        1.0
      ],
      "min": [
        -0.9999573230743408,
        -0.9997616410255432,
        -0.9999642968177795,
        -1.0
      ],
      "type": "VEC4"
    },
    {
      "bufferView": 1,
      "componentType": 5126,
      "count": 4739,
      "max": [
        0.9990217685699463,
        0.9992455840110779
      ],
      "min": [
        0.0,
        0.0
      ],
      "type": "VEC2"
    },
    {
      "bufferView": 0,
      "componentType": 5125,
      "count": 23472,
      "type": "SCALAR"
    }
  ],
  "asset": {
    "extras": {
      "author": "ShadowSupreme (https://sketchfab.com/ShadowSupreme)",
      "license": "SKETCHFAB Standard (https://sketchfab.com/licenses)",
      "source": "https://sketchfab.com/3d-models/fnaf-1-freddy-plush-966677cae4524b3eabda998f93150086",
      "title": "FNaF 1 Freddy Plush"
    },
    "generator": "Sketchfab-15.49.0",
    "version": "2.0"
  },
  "bufferViews": [
    {
      "buffer": 0,
      "byteLength": 93888,
      "name": "floatBufferViews",
      "target": 34963
    },
    {
      "buffer": 0,
      "byteLength": 37912,
      "byteOffset": 93888,
      "byteStride": 8,
      "name": "floatBufferViews",
      "target": 34962
    },
    {
      "buffer": 0,
      "byteLength": 113736,
      "byteOffset": 131800,
      "byteStride": 12,
      "name": "floatBufferViews",
      "target": 34962
    },
    {
      "buffer": 0,
      "byteLength": 75824,
      "byteOffset": 245536,
      "byteStride": 16,
      "name": "floatBufferViews",
      "target": 34962
    }
  ],
  "buffers": [
    {
      "byteLength": 321360,
      "uri": "scene.bin"
    }
  ],
  "extensionsUsed": [
    "KHR_materials_specular"
  ],
  "images": [
    {
      "uri": "textures/lambert1_baseColor.png"
    },
    {
      "uri": "textures/lambert1_metallicRoughness.png"
    },
    {
      "uri": "textures/lambert1_normal.png"
    }
  ],
  "materials": [
    {
      "doubleSided": true,
      "extensions": {
        "KHR_materials_specular": {
          "specularColorFactor": [
            1.0,
            1.0,
            1.0
          ],
          "specularFactor": 0.1940326421129348
        }
      },
      "name": "lambert1",
      "normalTexture": {
        "index": 2
      },
      "pbrMetallicRoughness": {
        "baseColorTexture": {
          "index": 0
        },
        "metallicRoughnessTexture": {
          "index": 1
        }
      }
    }
  ],
  "meshes": [
    {
      "name": "Freddy_Plush_V2_GEO_lambert1_0",
      "primitives": [
        {
          "attributes": {
            "NORMAL": 1,
            "POSITION": 0,
            "TANGENT": 2,
            "TEXCOORD_0": 3
          },
          "indices": 4,
          "material": 0,
          "mode": 4
        }
      ]
    }
  ],
  "nodes": [
    {
      "children": [
        1
      ],
      "matrix": [
        1.0,
        0.0,
        0.0,
        0.0,
        0.0,
        2.220446049250313e-16,
        -1.0,
        0.0,
        0.0,
        1.0,
        2.220446049250313e-16,
        0.0,
        0.0,
        0.0,
        0.0,
        1.0
      ],
      "name": "Sketchfab_model"
    },
    {
      "children": [
        2
      ],
      "matrix": [
        0.009999999776482582,
        0.0,
        0.0,
        0.0,
        0.0,
        0.0,
        0.009999999776482582,
        0.0,
        0.0,
        -0.009999999776482582,
        0.0,
        0.0,
        0.0,
        0.0,
        0.0,
        1.0
      ],
      "name": "eebba7e02b2343bbbb7ffbcffb5b6f40.fbx"
    },
    {
      "children": [
        3
      ],
      "name": "RootNode"
    },
    {
      "children": [
        4
      ],
      "matrix": [
        33.181488037109375,
        0.0,
        0.0,
        0.0,
        0.0,
        33.181488037109375,
        0.0,
        0.0,
        0.0,
        0.0,
        33.181488037109375,
        0.0,
        4.06904411315918,
        7.4966230392456055,
        14.91142463684082,
        1.0
      ],
      "name": "Freddy_Plush_V2_GEO"
    },
    {
      "mesh": 0,
      "name": "Freddy_Plush_V2_GEO_lambert1_0"
    }
  ],
  "samplers": [
    {
      "magFilter": 9729,
      "minFilter": 9987,
      "wrapS": 10497,
      "wrapT": 10497
    }
  ],
  "scene": 0,
  "scenes": [
    {
      "name": "Sketchfab_Scene",
      "nodes": [
        0
      ]
    }
  ],
  "textures": [
    {
      "sampler": 0,
      "source": 0
    },
    {
      "sampler": 0,
      "source": 1
    },
    {
      "sampler": 0,
      "source": 2
    }
  ]
}
